<svg width="334" height="152" viewBox="0 0 334 152" fill="none" xmlns="http://www.w3.org/2000/svg">
<path d="M56.639 49.1213C56.8428 50.7521 46.0004 63.9442 1 106.997C9.55985 113.113 50.5249 71.5274 52.9705 73.9736C55.4162 76.4198 46.2449 91.0969 43.7993 100.882C41.3536 110.666 59.6961 94.7662 63.9761 91.0969C68.256 87.4276 72.5359 106.997 78.6501 111.89C84.7643 116.782 163.198 25.581 170.974 23.8267C186.26 20.3786 233.95 106.997 245.567 106.997C257.184 106.997 257.184 91.0969 263.91 86.2045C270.635 81.3122 284.087 95.9893 291.424 94.7662C297.293 93.7877 281.641 76.8275 273.081 68.4697C274.1 67.0427 277.728 64.1888 284.087 64.1888C292.035 64.1888 303.041 86.2045 306.098 91.0969C308.543 95.0108 321.791 100.882 328.109 103.328L333 100.882C316.492 81.516 282.619 43.8855 279.195 48.2886C274.915 53.7925 254.419 64.9234 251.07 66.8562C235.173 76.0294 183.814 13.04 175.866 2.0322C167.917 -8.97565 100.05 71.5274 93.3241 78.866C87.9436 84.7368 66.6255 61.76 56.639 49.1213Z" fill="#7F06F9" stroke="#7F06F9"/>
<path d="M228.041 113.945C235.378 112.967 194.413 59.5176 173.625 42.3943C173.625 32.6095 109.426 98.6566 113.706 96.2104C117.13 94.2535 133.882 87.8526 135.717 89.4834C139.844 93.1527 132.537 98.6566 129.603 96.2104C126.668 93.7642 123.692 105.995 121.654 113.945C124.915 111.907 132.782 106.974 138.162 103.549C144.888 99.2682 144.277 105.384 147.945 105.384C151.614 105.384 157.728 102.937 161.396 100.491C165.065 98.0451 169.956 105.384 173.625 107.83C177.293 110.276 176.07 109.664 179.127 105.384C182.184 101.103 164.453 85.2026 163.23 82.1449C162.008 79.0871 169.345 65.6331 173.625 66.8562C177.904 68.0793 183.407 80.3102 189.521 89.4834C190.983 91.6756 198.693 96.2104 207.864 96.2104C211.533 102.53 220.704 114.924 228.041 113.945Z" fill="#B298DC" stroke="#B298DC"/>
<path d="M9.75453 146.24C8.50653 146.24 7.40253 146.04 6.44253 145.64C5.49853 145.24 4.74653 144.704 4.18653 144.032L6.51453 142.016C7.01053 142.512 7.57053 142.88 8.19453 143.12C8.81853 143.344 9.41053 143.456 9.97053 143.456C10.1945 143.456 10.3945 143.432 10.5705 143.384C10.7465 143.336 10.8905 143.272 11.0025 143.192C11.1305 143.096 11.2265 142.992 11.2905 142.88C11.3545 142.752 11.3865 142.608 11.3865 142.448C11.3865 142.128 11.2425 141.88 10.9545 141.704C10.8105 141.624 10.5705 141.528 10.2345 141.416C9.89853 141.304 9.46653 141.176 8.93853 141.032C8.18653 140.84 7.53053 140.616 6.97053 140.36C6.42653 140.088 5.97853 139.776 5.62653 139.424C5.30653 139.088 5.05853 138.72 4.88253 138.32C4.70653 137.904 4.61853 137.44 4.61853 136.928C4.61853 136.336 4.75453 135.8 5.02653 135.32C5.31453 134.84 5.69053 134.424 6.15453 134.072C6.63453 133.72 7.17853 133.456 7.78653 133.28C8.41053 133.088 9.05053 132.992 9.70653 132.992C10.4105 132.992 11.0825 133.072 11.7225 133.232C12.3625 133.392 12.9545 133.616 13.4985 133.904C14.0585 134.192 14.5545 134.536 14.9865 134.936L12.9705 137.192C12.6825 136.92 12.3545 136.68 11.9865 136.472C11.6345 136.248 11.2665 136.072 10.8825 135.944C10.4985 135.816 10.1465 135.752 9.82653 135.752C9.58653 135.752 9.37053 135.776 9.17853 135.824C9.00253 135.856 8.85053 135.92 8.72253 136.016C8.59453 136.096 8.49853 136.2 8.43453 136.328C8.37053 136.44 8.33853 136.576 8.33853 136.736C8.33853 136.896 8.37853 137.048 8.45853 137.192C8.55453 137.336 8.68253 137.456 8.84253 137.552C9.00253 137.648 9.25853 137.76 9.61053 137.888C9.96253 138 10.4425 138.144 11.0505 138.32C11.8025 138.528 12.4505 138.76 12.9945 139.016C13.5385 139.272 13.9705 139.576 14.2905 139.928C14.5465 140.2 14.7385 140.52 14.8665 140.888C14.9945 141.24 15.0585 141.624 15.0585 142.04C15.0585 142.856 14.8265 143.584 14.3625 144.224C13.9145 144.848 13.2905 145.344 12.4905 145.712C11.6905 146.064 10.7785 146.24 9.75453 146.24ZM37.2613 146V133.256H40.9093L41.0293 135.848L40.2613 136.136C40.4373 135.56 40.7493 135.04 41.1973 134.576C41.6613 134.096 42.2133 133.712 42.8533 133.424C43.4933 133.136 44.1653 132.992 44.8693 132.992C45.8293 132.992 46.6373 133.192 47.2933 133.592C47.9493 133.976 48.4453 134.56 48.7813 135.344C49.1173 136.112 49.2853 137.056 49.2853 138.176V146H45.4213V138.488C45.4213 137.976 45.3493 137.552 45.2053 137.216C45.0613 136.88 44.8373 136.632 44.5333 136.472C44.2453 136.296 43.8853 136.216 43.4533 136.232C43.1173 136.232 42.8053 136.288 42.5173 136.4C42.2293 136.496 41.9813 136.648 41.7733 136.856C41.5653 137.048 41.3973 137.272 41.2693 137.528C41.1573 137.784 41.1013 138.064 41.1013 138.368V146H39.2053C38.7573 146 38.3733 146 38.0533 146C37.7333 146 37.4693 146 37.2613 146ZM78.4157 146.24C77.0877 146.24 75.9037 145.952 74.8637 145.376C73.8397 144.8 73.0237 144.016 72.4157 143.024C71.8237 142.032 71.5277 140.896 71.5277 139.616C71.5277 138.336 71.8237 137.2 72.4157 136.208C73.0237 135.216 73.8397 134.432 74.8637 133.856C75.9037 133.28 77.0877 132.992 78.4157 132.992C79.7437 132.992 80.9197 133.28 81.9437 133.856C82.9837 134.432 83.7997 135.216 84.3917 136.208C84.9837 137.2 85.2797 138.336 85.2797 139.616C85.2797 140.896 84.9837 142.032 84.3917 143.024C83.7997 144.016 82.9837 144.8 81.9437 145.376C80.9197 145.952 79.7437 146.24 78.4157 146.24ZM78.4157 142.928C78.9917 142.928 79.5037 142.784 79.9517 142.496C80.3997 142.208 80.7517 141.816 81.0077 141.32C81.2637 140.824 81.3837 140.256 81.3677 139.616C81.3837 138.976 81.2637 138.408 81.0077 137.912C80.7517 137.4 80.3997 137 79.9517 136.712C79.5037 136.424 78.9917 136.28 78.4157 136.28C77.8397 136.28 77.3197 136.424 76.8557 136.712C76.4077 137 76.0557 137.4 75.7997 137.912C75.5437 138.408 75.4237 138.976 75.4397 139.616C75.4237 140.256 75.5437 140.824 75.7997 141.32C76.0557 141.816 76.4077 142.208 76.8557 142.496C77.3197 142.784 77.8397 142.928 78.4157 142.928ZM110.026 146L105.826 133.256H109.882L112.234 141.536L111.73 141.44L114.37 135.008H116.626L119.41 141.464L118.858 141.512L121.21 133.256H125.266L120.922 146H118.09L115.33 139.16L115.618 139.208L112.858 146H110.026ZM182.441 146.264C181.865 146.264 181.313 146.184 180.785 146.024C180.257 145.864 179.777 145.648 179.345 145.376C178.929 145.104 178.577 144.792 178.289 144.44C178.017 144.072 177.833 143.696 177.737 143.312L178.577 143.024L178.361 145.976H174.785V128.24H178.649V136.304L177.857 136.016C177.953 135.6 178.137 135.216 178.409 134.864C178.681 134.496 179.025 134.176 179.441 133.904C179.857 133.616 180.313 133.392 180.809 133.232C181.305 133.072 181.817 132.992 182.345 132.992C183.449 132.992 184.425 133.28 185.273 133.856C186.137 134.416 186.817 135.2 187.313 136.208C187.809 137.2 188.057 138.336 188.057 139.616C188.057 140.912 187.809 142.064 187.313 143.072C186.833 144.064 186.169 144.848 185.321 145.424C184.473 145.984 183.513 146.264 182.441 146.264ZM181.433 143.024C182.009 143.024 182.513 142.88 182.945 142.592C183.377 142.304 183.705 141.912 183.929 141.416C184.169 140.904 184.289 140.304 184.289 139.616C184.289 138.944 184.169 138.352 183.929 137.84C183.705 137.328 183.377 136.936 182.945 136.664C182.513 136.392 182.009 136.256 181.433 136.256C180.841 136.256 180.329 136.392 179.897 136.664C179.465 136.936 179.129 137.328 178.889 137.84C178.649 138.352 178.529 138.944 178.529 139.616C178.529 140.304 178.649 140.904 178.889 141.416C179.129 141.912 179.465 142.304 179.897 142.592C180.329 142.88 180.841 143.024 181.433 143.024ZM214.846 146.264C213.902 146.264 213.094 146.064 212.422 145.664C211.766 145.248 211.254 144.656 210.886 143.888C210.534 143.12 210.358 142.2 210.358 141.128V133.256H214.222V140.6C214.222 141.112 214.302 141.552 214.462 141.92C214.622 142.288 214.862 142.576 215.182 142.784C215.502 142.976 215.886 143.072 216.334 143.072C216.67 143.072 216.974 143.016 217.246 142.904C217.534 142.792 217.774 142.64 217.966 142.448C218.174 142.24 218.334 142.008 218.446 141.752C218.558 141.48 218.614 141.184 218.614 140.864V133.256H222.478V146H218.854L218.686 143.384L219.406 143.096C219.214 143.704 218.894 144.248 218.446 144.728C217.998 145.192 217.462 145.568 216.838 145.856C216.214 146.128 215.55 146.264 214.846 146.264ZM250.644 146.264C249.54 146.264 248.556 145.984 247.692 145.424C246.844 144.848 246.172 144.064 245.676 143.072C245.18 142.064 244.932 140.92 244.932 139.64C244.932 138.36 245.18 137.224 245.676 136.232C246.172 135.224 246.852 134.432 247.716 133.856C248.58 133.28 249.572 132.992 250.692 132.992C251.268 132.992 251.82 133.08 252.348 133.256C252.876 133.432 253.356 133.672 253.788 133.976C254.22 134.28 254.572 134.632 254.844 135.032C255.116 135.416 255.276 135.816 255.324 136.232L254.412 136.448V128.24H258.276V146H254.7L254.484 143.096L255.252 143.216C255.204 143.616 255.044 144 254.772 144.368C254.516 144.736 254.18 145.064 253.764 145.352C253.348 145.624 252.868 145.84 252.324 146C251.796 146.176 251.236 146.264 250.644 146.264ZM251.628 143.072C252.22 143.072 252.732 142.928 253.164 142.64C253.596 142.352 253.924 141.952 254.148 141.44C254.388 140.928 254.508 140.328 254.508 139.64C254.508 138.936 254.388 138.328 254.148 137.816C253.924 137.304 253.596 136.904 253.164 136.616C252.732 136.328 252.22 136.184 251.628 136.184C251.036 136.184 250.524 136.328 250.092 136.616C249.676 136.904 249.348 137.304 249.108 137.816C248.868 138.328 248.748 138.936 248.748 139.64C248.748 140.328 248.868 140.928 249.108 141.44C249.348 141.952 249.676 142.352 250.092 142.64C250.524 142.928 251.036 143.072 251.628 143.072ZM286.268 146.264C285.164 146.264 284.18 145.984 283.316 145.424C282.468 144.848 281.796 144.064 281.3 143.072C280.804 142.064 280.556 140.92 280.556 139.64C280.556 138.36 280.804 137.224 281.3 136.232C281.796 135.224 282.476 134.432 283.34 133.856C284.204 133.28 285.196 132.992 286.316 132.992C286.892 132.992 287.444 133.08 287.972 133.256C288.5 133.432 288.98 133.672 289.412 133.976C289.844 134.28 290.196 134.632 290.468 135.032C290.74 135.416 290.9 135.816 290.948 136.232L290.036 136.448V128.24H293.9V146H290.324L290.108 143.096L290.876 143.216C290.828 143.616 290.668 144 290.396 144.368C290.14 144.736 289.804 145.064 289.388 145.352C288.972 145.624 288.492 145.84 287.948 146C287.42 146.176 286.86 146.264 286.268 146.264ZM287.252 143.072C287.844 143.072 288.356 142.928 288.788 142.64C289.22 142.352 289.548 141.952 289.772 141.44C290.012 140.928 290.132 140.328 290.132 139.64C290.132 138.936 290.012 138.328 289.772 137.816C289.548 137.304 289.22 136.904 288.788 136.616C288.356 136.328 287.844 136.184 287.252 136.184C286.66 136.184 286.148 136.328 285.716 136.616C285.3 136.904 284.972 137.304 284.732 137.816C284.492 138.328 284.372 138.936 284.372 139.64C284.372 140.328 284.492 140.928 284.732 141.44C284.972 141.952 285.3 142.352 285.716 142.64C286.148 142.928 286.66 143.072 287.252 143.072ZM318.675 151.52L321.579 144.68L321.627 146.648L315.483 133.256H319.827L322.515 139.664C322.659 139.984 322.795 140.328 322.923 140.696C323.051 141.064 323.147 141.416 323.211 141.752L322.683 142.064C322.779 141.824 322.883 141.528 322.995 141.176C323.123 140.808 323.259 140.416 323.403 140L325.755 133.256H330.123L324.699 146L322.491 151.52H318.675Z" fill="#F7F5F8"/>
</svg>
