<svg width="334" height="154" viewBox="0 0 334 154" fill="none" xmlns="http://www.w3.org/2000/svg">
<path d="M56.639 49.1213C56.8428 50.7521 46.0004 63.9442 1 106.997C9.55985 113.113 50.5249 71.5274 52.9705 73.9736C55.4162 76.4198 46.2449 91.0969 43.7993 100.882C41.3536 110.666 59.6961 94.7662 63.9761 91.0969C68.256 87.4276 72.5359 106.997 78.6501 111.89C84.7643 116.782 163.198 25.581 170.974 23.8267C186.26 20.3786 233.95 106.997 245.567 106.997C257.184 106.997 257.184 91.0969 263.91 86.2045C270.635 81.3122 284.087 95.9893 291.424 94.7662C297.293 93.7877 281.641 76.8275 273.081 68.4697C274.1 67.0427 277.728 64.1888 284.087 64.1888C292.035 64.1888 303.041 86.2045 306.098 91.0969C308.543 95.0108 321.791 100.882 328.109 103.328L333 100.882C316.492 81.516 282.619 43.8855 279.195 48.2886C274.915 53.7925 254.419 64.9234 251.07 66.8562C235.173 76.0294 183.814 13.04 175.866 2.0322C167.917 -8.97565 100.05 71.5274 93.3241 78.866C87.9436 84.7368 66.6255 61.76 56.639 49.1213Z" fill="#A663CC" stroke="#A663CC"/>
<path d="M228.041 113.945C235.378 112.967 194.413 59.5176 173.625 42.3943C173.625 32.6095 109.426 98.6566 113.706 96.2104C117.13 94.2535 133.882 87.8526 135.717 89.4834C139.844 93.1527 132.537 98.6566 129.603 96.2104C126.668 93.7642 123.692 105.995 121.654 113.945C124.915 111.907 132.782 106.974 138.162 103.549C144.888 99.2682 144.277 105.384 147.945 105.384C151.614 105.384 157.728 102.937 161.396 100.491C165.065 98.0451 169.956 105.384 173.625 107.83C177.293 110.276 176.07 109.664 179.127 105.384C182.184 101.103 164.453 85.2026 163.23 82.1449C162.008 79.0871 169.345 65.6331 173.625 66.8562C177.904 68.0793 183.407 80.3102 189.521 89.4834C190.983 91.6756 198.693 96.2104 207.864 96.2104C211.533 102.53 220.704 114.924 228.041 113.945Z" fill="#6F2DBD" stroke="#6F2DBD"/>
<path d="M14.0492 146.457C13.5258 146.457 12.9281 146.438 12.2563 146.398C11.5844 146.367 10.9008 146.309 10.2055 146.223C9.51016 146.145 8.85782 146.035 8.24844 145.895C7.64688 145.746 7.15079 145.566 6.76016 145.355L7.5336 142.109C8.9086 142.398 10.1313 142.602 11.2016 142.719C12.2719 142.828 13.1742 142.883 13.9086 142.883C14.5805 142.883 15.0922 142.848 15.4438 142.777C15.8031 142.699 15.9828 142.609 15.9828 142.508C15.9828 142.281 15.8617 142.129 15.6195 142.051C15.3852 141.973 15.0258 141.883 14.5414 141.781C13.643 141.609 12.7328 141.453 11.8109 141.312C10.8969 141.164 10.057 140.969 9.29141 140.727C8.52579 140.484 7.9086 140.133 7.43985 139.672C6.97891 139.211 6.74844 138.582 6.74844 137.785C6.74844 137.043 6.96719 136.426 7.40469 135.934C7.84219 135.434 8.4086 135.035 9.10391 134.738C9.79922 134.441 10.5375 134.219 11.3188 134.07C12.1078 133.922 12.8578 133.824 13.5688 133.777C14.2797 133.73 14.8617 133.707 15.3148 133.707C16.4867 133.707 17.5609 133.777 18.5375 133.918C19.5141 134.059 20.4203 134.234 21.2563 134.445L20.6938 137.727C20.4516 137.664 20.1 137.602 19.6391 137.539C19.1781 137.469 18.6547 137.402 18.0688 137.34C17.4906 137.277 16.9008 137.227 16.2992 137.188C15.6977 137.148 15.1391 137.129 14.6234 137.129C14.1938 137.129 13.8383 137.16 13.557 137.223C13.2836 137.277 13.1469 137.379 13.1469 137.527C13.1469 137.715 13.2641 137.844 13.4984 137.914C13.7328 137.977 14.0609 138.035 14.4828 138.09C15.3656 138.199 16.2602 138.32 17.1664 138.453C18.0727 138.578 18.9086 138.777 19.6742 139.051C20.4477 139.316 21.0688 139.711 21.5375 140.234C22.0063 140.75 22.2406 141.449 22.2406 142.332C22.2406 142.949 22.1234 143.512 21.8891 144.02C21.6547 144.527 21.2367 144.965 20.6352 145.332C20.0414 145.691 19.2094 145.969 18.1391 146.164C17.0766 146.359 15.7133 146.457 14.0492 146.457ZM38.3703 146.117C38.3703 145.922 38.3781 145.52 38.3938 144.91C38.4094 144.301 38.4289 143.578 38.4524 142.742C38.4836 141.906 38.5109 141.043 38.5344 140.152C38.5578 139.254 38.5813 138.41 38.6047 137.621C38.6359 136.824 38.6594 136.168 38.675 135.652C38.6906 135.129 38.6984 134.836 38.6984 134.773L42.6242 133.941L43.8781 136.355C44.3703 135.73 44.9914 135.238 45.7414 134.879C46.4992 134.512 47.3078 134.25 48.1672 134.094C49.0344 133.938 49.8781 133.859 50.6984 133.859C52.5344 133.859 54.093 134.195 55.3742 134.867C56.6555 135.539 57.4836 136.574 57.8586 137.973C57.9211 138.246 57.9602 138.527 57.9758 138.816C57.9992 139.105 58.0109 139.391 58.0109 139.672C58.0109 139.961 57.9992 140.328 57.9758 140.773C57.9602 141.219 57.9367 141.852 57.9055 142.672C57.8742 143.492 57.8391 144.613 57.8 146.035L50.8156 146.082L50.8859 140.504C50.8859 139.707 50.6672 139.039 50.2297 138.5C49.8 137.961 49.2375 137.691 48.5422 137.691C47.6672 137.691 47.0031 137.922 46.55 138.383C46.1047 138.836 45.8039 139.426 45.6477 140.152C45.4992 140.871 45.425 141.637 45.425 142.449C45.425 142.66 45.4211 142.961 45.4133 143.352C45.4055 143.734 45.3977 144.129 45.3899 144.535C45.3899 144.941 45.3859 145.289 45.3781 145.578C45.3703 145.859 45.3664 146 45.3664 146L38.3703 146.117ZM83.0117 146.434C81.9336 146.434 80.8594 146.348 79.7891 146.176C78.7188 146.012 77.7422 145.707 76.8594 145.262C75.9766 144.816 75.2695 144.191 74.7383 143.387C74.207 142.574 73.9414 141.523 73.9414 140.234C73.9414 138.586 74.3555 137.266 75.1836 136.273C76.0195 135.281 77.168 134.566 78.6289 134.129C80.0977 133.684 81.7813 133.461 83.6797 133.461C85.3438 133.461 86.832 133.711 88.1445 134.211C89.457 134.703 90.4883 135.426 91.2383 136.379C91.9961 137.324 92.375 138.477 92.375 139.836C92.375 140.977 92.1836 141.941 91.8008 142.73C91.4258 143.512 90.9141 144.148 90.2656 144.641C89.625 145.125 88.8984 145.5 88.0859 145.766C87.2813 146.023 86.4414 146.199 85.5664 146.293C84.6914 146.387 83.8399 146.434 83.0117 146.434ZM83.1992 143.234C84.1758 143.234 84.8906 142.914 85.3438 142.273C85.8047 141.625 86.0352 140.828 86.0352 139.883C86.0352 139.062 85.7852 138.367 85.2852 137.797C84.793 137.227 84.0781 136.941 83.1406 136.941C82.5 136.941 81.9805 137.102 81.582 137.422C81.1836 137.742 80.8906 138.148 80.7031 138.641C80.5234 139.125 80.4336 139.625 80.4336 140.141C80.4336 141.125 80.6563 141.887 81.1016 142.426C81.5547 142.965 82.2539 143.234 83.1992 143.234ZM128.567 146.023C126.169 146.094 124.438 146.129 123.376 146.129C122.845 146.129 122.411 146.129 122.075 146.129C121.739 146.129 121.501 146.133 121.36 146.141C121.282 145.742 121.153 145.086 120.973 144.172C120.794 143.25 120.559 142.07 120.27 140.633L118.911 145.848C116.231 145.988 114.243 146.059 112.946 146.059H111.645C110.028 140.723 108.786 136.816 107.919 134.34C108.747 134.324 109.513 134.309 110.216 134.293C110.927 134.27 111.497 134.25 111.927 134.234L113.098 134.176C113.606 134.176 114.04 134.164 114.399 134.141L115.7 141.453L117.259 135.547L117.61 134.105L121.384 134.07C122.188 134.07 122.977 134.094 123.751 134.141C123.86 134.703 124.048 135.59 124.313 136.801C124.587 138.004 124.934 139.531 125.356 141.383L127.126 134.141L128.72 134.023L133.22 134C132.837 134.906 132.45 135.855 132.059 136.848C131.669 137.832 131.298 138.793 130.946 139.73C130.595 140.66 130.278 141.508 129.997 142.273C129.716 143.031 129.489 143.641 129.317 144.102C129.13 144.586 128.977 144.969 128.86 145.25C128.751 145.523 128.653 145.781 128.567 146.023ZM179.19 146.434C177.885 146.434 176.647 146.211 175.475 145.766C174.303 145.312 173.362 144.648 172.651 143.773V143.727C172.635 143.781 172.565 143.91 172.44 144.113C172.315 144.316 172.17 144.543 172.006 144.793C171.85 145.035 171.709 145.246 171.584 145.426C171.467 145.605 171.405 145.695 171.397 145.695C171.35 145.719 171.194 145.758 170.928 145.812C170.663 145.859 170.362 145.91 170.026 145.965C169.698 146.02 169.401 146.066 169.135 146.105C168.877 146.145 168.729 146.164 168.69 146.164C168.37 146.164 168.116 146.086 167.928 145.93C167.936 145.68 167.944 145.426 167.952 145.168C167.959 144.902 167.967 144.645 167.975 144.395L167.963 144.359L168.526 131.129V129.559C168.651 129.543 168.881 129.516 169.217 129.477C169.561 129.43 169.955 129.383 170.401 129.336C170.854 129.281 171.303 129.23 171.748 129.184C172.194 129.137 172.584 129.098 172.92 129.066C173.256 129.035 173.479 129.02 173.588 129.02C173.862 129.02 174.131 129.027 174.397 129.043C174.663 129.059 174.916 129.094 175.159 129.148C175.159 129.336 175.155 129.527 175.147 129.723C175.139 129.91 175.135 130.098 175.135 130.285C175.135 130.52 175.123 130.863 175.1 131.316C175.084 131.762 175.061 132.242 175.03 132.758C175.006 133.273 174.983 133.758 174.959 134.211C174.944 134.656 174.932 134.992 174.924 135.219C175.549 134.797 176.295 134.445 177.163 134.164C178.03 133.875 178.924 133.73 179.846 133.73C181.166 133.73 182.393 133.969 183.526 134.445C184.659 134.914 185.569 135.602 186.256 136.508C186.952 137.414 187.299 138.516 187.299 139.812C187.299 140.727 187.084 141.582 186.655 142.379C186.225 143.176 185.631 143.879 184.873 144.488C184.123 145.098 183.26 145.574 182.284 145.918C181.307 146.262 180.276 146.434 179.19 146.434ZM177.455 143.07C178.377 143.07 179.104 142.766 179.635 142.156C180.166 141.547 180.432 140.805 180.432 139.93C180.432 139.094 180.166 138.398 179.635 137.844C179.104 137.281 178.37 137 177.432 137C176.752 137 176.178 137.156 175.709 137.469C175.248 137.781 174.901 138.184 174.666 138.676C174.432 139.16 174.315 139.664 174.315 140.188C174.315 140.672 174.424 141.137 174.643 141.582C174.87 142.02 175.213 142.379 175.674 142.66C176.143 142.934 176.737 143.07 177.455 143.07ZM210.554 146.445C209.663 146.445 208.784 146.355 207.917 146.176C207.05 146.004 206.257 145.719 205.538 145.32C204.827 144.922 204.257 144.391 203.827 143.727C203.405 143.055 203.195 142.223 203.195 141.23C203.195 140.121 203.21 139.195 203.241 138.453C203.28 137.711 203.323 137.031 203.37 136.414C203.417 135.797 203.448 135.137 203.464 134.434C203.784 134.379 204.257 134.312 204.882 134.234C205.515 134.148 206.187 134.074 206.898 134.012C207.609 133.949 208.249 133.918 208.82 133.918C209.148 133.918 209.452 133.93 209.734 133.953C210.015 133.969 210.28 133.988 210.53 134.012C210.507 134.52 210.476 135.109 210.437 135.781C210.405 136.453 210.374 137.109 210.343 137.75C210.32 138.391 210.296 138.93 210.273 139.367C210.257 139.797 210.249 140.027 210.249 140.059C210.249 140.91 210.433 141.637 210.8 142.238C211.175 142.832 211.78 143.129 212.616 143.129C213.195 143.129 213.655 143.02 213.999 142.801C214.351 142.574 214.624 142.293 214.82 141.957C215.023 141.621 215.191 141.293 215.323 140.973C215.488 140.613 215.601 140.141 215.663 139.555C215.726 138.961 215.761 138.332 215.769 137.668C215.777 137.004 215.78 136.375 215.78 135.781C215.788 135.18 215.82 134.691 215.874 134.316C216.429 134.277 217.007 134.242 217.609 134.211C218.218 134.172 218.917 134.129 219.706 134.082C220.495 134.035 221.441 133.98 222.542 133.918C222.55 134.145 222.554 134.367 222.554 134.586C222.554 134.797 222.554 135.016 222.554 135.242L221.98 145.648C221.55 145.727 221.066 145.805 220.527 145.883C219.988 145.961 219.241 146.066 218.288 146.199C218.202 146.082 218.077 145.887 217.913 145.613C217.749 145.332 217.593 145.027 217.445 144.699C217.296 144.363 217.202 144.055 217.163 143.773C216.359 144.695 215.359 145.371 214.163 145.801C212.968 146.23 211.765 146.445 210.554 146.445ZM246.465 146.387C245.051 146.387 243.77 146.133 242.621 145.625C241.48 145.117 240.57 144.41 239.891 143.504C239.219 142.598 238.883 141.547 238.883 140.352C238.883 139.25 239.117 138.285 239.586 137.457C240.055 136.629 240.684 135.941 241.473 135.395C242.262 134.84 243.141 134.426 244.109 134.152C245.086 133.871 246.082 133.73 247.098 133.73C247.98 133.73 248.828 133.875 249.641 134.164C250.453 134.445 251.145 134.801 251.715 135.23C251.73 134.52 251.754 133.758 251.785 132.945C251.816 132.133 251.84 131.371 251.855 130.66C251.855 130.465 251.863 130.23 251.879 129.957C251.902 129.684 251.918 129.504 251.926 129.418C252.152 129.41 252.48 129.395 252.91 129.371C253.348 129.34 253.824 129.309 254.34 129.277C254.863 129.238 255.375 129.203 255.875 129.172C256.375 129.141 256.816 129.117 257.199 129.102C257.582 129.078 257.844 129.066 257.984 129.066H258.02V145.555C257.934 145.609 257.699 145.668 257.316 145.73C256.934 145.785 256.504 145.852 256.027 145.93C255.559 146 255.141 146.082 254.773 146.176C254.484 145.66 254.211 145.18 253.953 144.734C253.695 144.289 253.457 143.852 253.238 143.422C252.84 143.945 252.359 144.434 251.797 144.887C251.234 145.34 250.527 145.703 249.676 145.977C248.824 146.25 247.754 146.387 246.465 146.387ZM248.281 143.012C249.039 143.012 249.656 142.855 250.133 142.543C250.617 142.223 250.977 141.82 251.211 141.336C251.445 140.844 251.57 140.336 251.586 139.812C251.586 139.328 251.477 138.871 251.258 138.441C251.047 138.004 250.734 137.652 250.32 137.387C249.914 137.113 249.422 136.977 248.844 136.977C248.203 136.977 247.66 137.145 247.215 137.48C246.777 137.809 246.445 138.215 246.219 138.699C245.992 139.184 245.879 139.656 245.879 140.117C245.879 141.039 246.078 141.754 246.477 142.262C246.883 142.762 247.484 143.012 248.281 143.012ZM281.907 146.387C280.493 146.387 279.212 146.133 278.063 145.625C276.923 145.117 276.013 144.41 275.333 143.504C274.661 142.598 274.325 141.547 274.325 140.352C274.325 139.25 274.559 138.285 275.028 137.457C275.497 136.629 276.126 135.941 276.915 135.395C277.704 134.84 278.583 134.426 279.552 134.152C280.528 133.871 281.524 133.73 282.54 133.73C283.423 133.73 284.27 133.875 285.083 134.164C285.895 134.445 286.587 134.801 287.157 135.23C287.173 134.52 287.196 133.758 287.227 132.945C287.259 132.133 287.282 131.371 287.298 130.66C287.298 130.465 287.305 130.23 287.321 129.957C287.345 129.684 287.36 129.504 287.368 129.418C287.595 129.41 287.923 129.395 288.352 129.371C288.79 129.34 289.266 129.309 289.782 129.277C290.305 129.238 290.817 129.203 291.317 129.172C291.817 129.141 292.259 129.117 292.641 129.102C293.024 129.078 293.286 129.066 293.427 129.066H293.462V145.555C293.376 145.609 293.141 145.668 292.759 145.73C292.376 145.785 291.946 145.852 291.47 145.93C291.001 146 290.583 146.082 290.216 146.176C289.927 145.66 289.653 145.18 289.395 144.734C289.138 144.289 288.899 143.852 288.68 143.422C288.282 143.945 287.802 144.434 287.239 144.887C286.677 145.34 285.97 145.703 285.118 145.977C284.266 146.25 283.196 146.387 281.907 146.387ZM283.723 143.012C284.481 143.012 285.098 142.855 285.575 142.543C286.059 142.223 286.419 141.82 286.653 141.336C286.888 140.844 287.013 140.336 287.028 139.812C287.028 139.328 286.919 138.871 286.7 138.441C286.489 138.004 286.177 137.652 285.763 137.387C285.356 137.113 284.864 136.977 284.286 136.977C283.645 136.977 283.102 137.145 282.657 137.48C282.22 137.809 281.888 138.215 281.661 138.699C281.434 139.184 281.321 139.656 281.321 140.117C281.321 141.039 281.52 141.754 281.919 142.262C282.325 142.762 282.927 143.012 283.723 143.012ZM313.318 153.781L311.291 150.5C311.462 150.5 311.795 150.434 312.287 150.301C312.779 150.176 313.318 149.988 313.904 149.738C314.498 149.496 315.037 149.199 315.521 148.848C316.005 148.504 316.33 148.117 316.494 147.688L315.509 145.918C315.15 145.277 314.736 144.504 314.267 143.598C313.798 142.691 313.318 141.746 312.826 140.762C312.334 139.777 311.861 138.836 311.408 137.938C310.955 137.031 310.56 136.25 310.224 135.594C309.896 134.938 309.666 134.5 309.533 134.281L316.377 133.988L319.67 141.617C319.779 141.328 319.916 140.93 320.08 140.422C320.252 139.906 320.435 139.34 320.63 138.723C320.834 138.105 321.037 137.488 321.24 136.871C321.443 136.254 321.63 135.691 321.802 135.184C321.974 134.676 322.119 134.281 322.236 134C322.4 133.984 322.564 133.977 322.728 133.977C322.9 133.977 323.076 133.977 323.255 133.977L328.306 134.164L327.685 135.664L322.88 146.691C322.49 147.566 322.041 148.426 321.533 149.27C321.033 150.113 320.42 150.875 319.693 151.555C318.974 152.234 318.095 152.773 317.056 153.172C316.025 153.578 314.779 153.781 313.318 153.781Z" fill="#B298DC"/>
</svg>
